<mxfile host="app.diagrams.net" modified="2024-04-05T20:21:26.753Z" agent="Mozilla/5.0 (Windows NT 10.0; Win64; x64) AppleWebKit/537.36 (KHTML, like Gecko) Chrome/123.0.0.0 Safari/537.36 Edg/123.0.0.0" etag="gdJlwESyZpd_Ns8BymB4" version="24.2.2" type="github">
  <diagram name="Page-1" id="A8W0ZlJkRZm1EOQpJBz_">
    <mxGraphModel dx="1209" dy="807" grid="1" gridSize="10" guides="1" tooltips="1" connect="1" arrows="1" fold="1" page="1" pageScale="1" pageWidth="850" pageHeight="1100" math="0" shadow="0">
      <root>
        <mxCell id="0" />
        <mxCell id="1" parent="0" />
        <mxCell id="uq200lhuQBNym-ZLv9r4-11" value="" style="group;fillColor=default;gradientColor=none;strokeColor=none;" parent="1" connectable="0" vertex="1">
          <mxGeometry x="310" y="235" width="120" height="120" as="geometry" />
        </mxCell>
        <mxCell id="uq200lhuQBNym-ZLv9r4-2" value="" style="rounded=1;whiteSpace=wrap;html=1;arcSize=7;fillColor=#1ba1e2;strokeColor=#006EAF;fontColor=#ffffff;" parent="uq200lhuQBNym-ZLv9r4-11" vertex="1">
          <mxGeometry width="120" height="120" as="geometry" />
        </mxCell>
        <mxCell id="uq200lhuQBNym-ZLv9r4-3" value="CPU" style="rounded=1;whiteSpace=wrap;html=1;fillColor=#cce5ff;strokeColor=#146994;shadow=1;" parent="uq200lhuQBNym-ZLv9r4-11" vertex="1">
          <mxGeometry x="10" y="10" width="100" height="100" as="geometry" />
        </mxCell>
        <mxCell id="uq200lhuQBNym-ZLv9r4-14" value="DDR" style="verticalLabelPosition=bottom;shadow=0;dashed=0;align=center;html=1;verticalAlign=top;shape=mxgraph.electrical.transmission.4_line_bus;strokeWidth=3;fillColor=#ffcc99;strokeColor=#FF8000;" parent="uq200lhuQBNym-ZLv9r4-11" vertex="1">
          <mxGeometry x="-70" y="40" width="70" height="40" as="geometry" />
        </mxCell>
        <mxCell id="uq200lhuQBNym-ZLv9r4-13" value="DRAM" style="pointerEvents=1;shadow=0;dashed=0;html=1;strokeColor=#d79b00;fillColor=#ffcd28;labelPosition=center;verticalLabelPosition=bottom;verticalAlign=top;align=center;outlineConnect=0;shape=mxgraph.veeam.ram;fillStyle=auto;direction=north;gradientColor=#ffa500;" parent="1" vertex="1">
          <mxGeometry x="200" y="230" width="40" height="130" as="geometry" />
        </mxCell>
        <mxCell id="uq200lhuQBNym-ZLv9r4-47" value="DDR" style="verticalLabelPosition=bottom;shadow=0;dashed=0;align=center;html=1;verticalAlign=top;shape=mxgraph.electrical.transmission.4_line_bus;strokeWidth=3;fillColor=#ffcc99;strokeColor=#FF8000;direction=west;flipV=1;" parent="1" vertex="1">
          <mxGeometry x="430" y="275" width="70" height="40" as="geometry" />
        </mxCell>
        <mxCell id="uq200lhuQBNym-ZLv9r4-48" value="DRAM" style="pointerEvents=1;shadow=0;dashed=0;html=1;strokeColor=#d79b00;fillColor=#ffcd28;labelPosition=center;verticalLabelPosition=bottom;verticalAlign=top;align=center;outlineConnect=0;shape=mxgraph.veeam.ram;fillStyle=auto;direction=south;gradientColor=#ffa500;flipV=1;" parent="1" vertex="1">
          <mxGeometry x="500" y="230" width="40" height="130" as="geometry" />
        </mxCell>
        <mxCell id="uq200lhuQBNym-ZLv9r4-198" value="x4 PCIe" style="text;html=1;align=center;verticalAlign=middle;resizable=0;points=[];autosize=1;strokeColor=none;fillColor=none;fontFamily=Helvetica;fontSize=11;fontColor=default;labelBackgroundColor=default;" parent="1" vertex="1">
          <mxGeometry x="295.00000000000006" y="360" width="60" height="30" as="geometry" />
        </mxCell>
        <mxCell id="uq200lhuQBNym-ZLv9r4-199" value="" style="group" parent="1" connectable="0" vertex="1">
          <mxGeometry x="345.28999999999996" y="399.9994117647059" width="80" height="93.5305882352942" as="geometry" />
        </mxCell>
        <mxCell id="uq200lhuQBNym-ZLv9r4-200" value="" style="rounded=1;whiteSpace=wrap;html=1;direction=south;fillColor=#ffb20d;arcSize=7;strokeColor=#d79b00;rotation=90;" parent="uq200lhuQBNym-ZLv9r4-199" vertex="1">
          <mxGeometry x="15.710000000000036" y="-10.179411764705833" width="19.641176470588235" height="40" as="geometry" />
        </mxCell>
        <mxCell id="uq200lhuQBNym-ZLv9r4-201" value="&lt;div&gt;&lt;font style=&quot;font-size: 12px;&quot;&gt;CMM&lt;/font&gt;&lt;/div&gt;" style="rounded=0;whiteSpace=wrap;html=1;strokeWidth=1;fillColor=#a2d460;strokeColor=#60a512;fontSize=10;gradientColor=#60a512;rotation=90;" parent="uq200lhuQBNym-ZLv9r4-199" vertex="1">
          <mxGeometry x="-2.9999999999999716" y="10.530588235294204" width="86" height="80" as="geometry" />
        </mxCell>
        <mxCell id="uq200lhuQBNym-ZLv9r4-202" value="" style="ellipse;whiteSpace=wrap;html=1;aspect=fixed;strokeWidth=3;shadow=0;strokeColor=#ffffff;rotation=90;" parent="uq200lhuQBNym-ZLv9r4-199" vertex="1">
          <mxGeometry x="73.71000000000004" y="12.820588235294167" width="2" height="2" as="geometry" />
        </mxCell>
        <mxCell id="uq200lhuQBNym-ZLv9r4-203" value="" style="ellipse;whiteSpace=wrap;html=1;aspect=fixed;strokeWidth=3;shadow=0;strokeColor=#ffffff;rotation=90;" parent="uq200lhuQBNym-ZLv9r4-199" vertex="1">
          <mxGeometry x="73.71000000000004" y="85.82058823529417" width="2" height="2" as="geometry" />
        </mxCell>
        <mxCell id="uq200lhuQBNym-ZLv9r4-204" value="" style="ellipse;whiteSpace=wrap;html=1;aspect=fixed;strokeWidth=3;shadow=0;strokeColor=#ffffff;rotation=90;" parent="uq200lhuQBNym-ZLv9r4-199" vertex="1">
          <mxGeometry x="5.710000000000036" y="12.820588235294167" width="2" height="2" as="geometry" />
        </mxCell>
        <mxCell id="uq200lhuQBNym-ZLv9r4-205" value="" style="ellipse;whiteSpace=wrap;html=1;aspect=fixed;strokeWidth=3;shadow=0;strokeColor=#ffffff;rotation=90;" parent="uq200lhuQBNym-ZLv9r4-199" vertex="1">
          <mxGeometry x="5.710000000000036" y="85.82058823529417" width="2" height="2" as="geometry" />
        </mxCell>
        <mxCell id="uq200lhuQBNym-ZLv9r4-206" value="" style="shape=link;html=1;rounded=0;entryX=0.411;entryY=0.991;entryDx=0;entryDy=0;entryPerimeter=0;strokeWidth=3;elbow=vertical;width=4;arcSize=20;" parent="1" edge="1">
          <mxGeometry width="100" relative="1" as="geometry">
            <mxPoint x="375.28999999999996" y="400" as="sourcePoint" />
            <mxPoint x="374.95" y="355" as="targetPoint" />
          </mxGeometry>
        </mxCell>
        <mxCell id="uq200lhuQBNym-ZLv9r4-207" value="" style="shape=link;html=1;rounded=0;entryX=0.411;entryY=0.991;entryDx=0;entryDy=0;entryPerimeter=0;strokeWidth=3;elbow=vertical;width=4;arcSize=20;" parent="1" edge="1">
          <mxGeometry width="100" relative="1" as="geometry">
            <mxPoint x="363.63" y="400" as="sourcePoint" />
            <mxPoint x="363.28999999999996" y="355" as="targetPoint" />
          </mxGeometry>
        </mxCell>
      </root>
    </mxGraphModel>
  </diagram>
</mxfile>
